<?xml version="1.0" encoding="utf-8"?>
<!-- Generator: Adobe Illustrator 16.0.0, SVG Export Plug-In . SVG Version: 6.00 Build 0)  -->
<!DOCTYPE svg PUBLIC "-//W3C//DTD SVG 1.1//EN" "http://www.w3.org/Graphics/SVG/1.1/DTD/svg11.dtd">
<svg version="1.1" id="圖層_1" xmlns="http://www.w3.org/2000/svg" xmlns:xlink="http://www.w3.org/1999/xlink" x="0px" y="0px"
	 width="325px" height="63px" viewBox="0 0 325 63" enable-background="new 0 0 325 63" xml:space="preserve">
<g>
	<path fill="#FFFFFF" d="M20.723,15.648c0,0-15.723,1.572-15.723,17.896c0,0-0.346,13.748,15.451,16.662l0,0l0.271-0.174V36.852
		l3.846-2.1l0.637,8.121l0.498-6.588l0.361,6.031l0.605-6.492l0.563,5.789l0.539-6.22l0.455,5.755l0.461-6.226l0.533,5.664
		l0.217-18.441l0,0c0,0,5.682,2.235,6.219,10.302c0,0,1.338,9.869-10.736,13.257l0,0v4.683l0,0c0,0,15.594-1.623,15.377-17.939
		c0,0-0.098-14.908-15.551-16.838l0,0v13.535l-3.809,1.956l-0.453-8.229l-0.564,6.737l-0.574-6.225l-0.455,6.8l-0.539-6.146
		l-0.465,6.533L17.364,24.6l-0.539,6.574l-0.381-6.195L15.835,43.63l0,0c0,0-5.68-2.771-6.063-10.331c0,0-0.473-10.89,10.891-13.174
		l0,0L20.723,15.648L20.723,15.648z"/>
	<polygon fill="#FFFFFF" points="143.223,20.957 145.305,20.666 147.333,19.963 147.846,19.116 147.784,17.843 146.942,16.801 
		146.225,16.759 145.694,17.457 144.907,18.082 141.534,19.188 140.1,19.406 140.1,20.287 141.128,20.957 	"/>
	<polygon fill="#FFFFFF" points="151.794,19.877 153.516,19.963 156.36,20.167 158.077,20.041 159.009,19.406 159.009,18.317 
		157.979,17.719 154.77,17.457 151.364,17.32 150.577,18.182 150.807,19.307 	"/>
	<path fill="#FFFFFF" d="M146.942,22.525l-1.539,0.125l-1.014,0.236l-1.697-0.136l-2.645,0.208l-0.771,0.631l0.129,1.215
		l0.732,0.791l0.99-0.071c0,0,0.709-0.255,0.871-0.321c0.195-0.06,1.115-0.367,1.115-0.367l1.338,0.072l0.281,1.094v2.377
		l-0.344,1.7l-0.83,1.196l-0.969,0.522h-2.229l-0.729,0.558l-0.189,0.826c0,0,0.189,0.768,0.363,0.768
		c0.162,0,1.727,0.084,1.727,0.084l1.631-0.148l1.225-0.414l1.15-0.744l1.152-1.225l0.641-1.893l0.16-2.689l0.227-2.084l0.438-0.4
		l-0.199-1.477L146.942,22.525z"/>
	<path fill="#FFFFFF" d="M72.323,27.75h-4.305l-0.555-0.227V26.92l0.451-0.399l0.865-0.101l0.592-0.291l0.23-0.533l0.107-0.556
		l-0.107-0.604h-1.385l-0.199-0.396l-0.393-0.605l-0.877-0.391l-0.916,0.313l-0.396,1.025l-1.563-0.031h-1.154l-0.07-1.159
		l0.557,0.021l0.668-0.021H64.2l1.063-0.147l0.68-0.393l0.287-0.591l-0.158-0.64l0.096-0.289l0.42-0.258l0.51-0.762h0.58
		l1.557-0.148l0.629-0.626l0.307-0.927l-0.863-0.449l-1.842-0.285l0.047-1.108l0.043-0.74l-0.805-0.688h-1.074l-0.609,0.925
		l-0.336,1.612l-0.855,0.043h-0.83l-0.916,0.074l-0.768,0.986l0.129,0.695l0.932,0.402c0,0,0.959-0.07,1.453-0.1
		c0.176,0,0.311,0,0.326,0c0.168,0,0.621,0.334,0.621,0.334l0.213,0.78l-0.412,0.435l-0.748,0.045h-0.83l-1.09-0.114l-0.928-0.384
		l-0.539,0.384l-1.965-0.063l-1.148-0.063l0.08-0.387l0.404-0.457l0.449-0.51h0.215h0.555l0.561-0.199l0.404-0.563l0.162-0.632
		l-0.668-0.59L58.7,17.719l-0.178-0.071l-0.58-0.265l-0.084-0.815l-0.404-0.696l-0.592-0.57l-0.867-0.051l-0.629,0.621L55.3,17.32
		l-0.627,0.137c0,0-0.869,0.037-1.059,0.094c-0.174,0.057-0.73,0.603-0.73,0.603l-0.367,0.564l0.131,0.831l0.793,0.414h0.934
		l0.992-0.086l0.238,0.29l0.555,0.462l0.541,0.244c0,0-0.139,0.384-0.307,0.453c-0.172,0.045-0.5,0.498-0.5,0.498l0.102,1.219
		L55.3,22.992l-0.754,0.363L54.21,24.35l-0.934,0.271l-0.689,1.68l0.754,0.453h1.428l-0.16,0.928l-1.725,0.155L51.35,28.23
		c0,0-0.918,0.313-1.24,1.072c-0.381,0.776,0,1.033,0,1.033l0.99,0.996l1.547,0.306l0.967-1.005l1.615-0.448
		c0,0,2.928-0.532,3.078-0.532c0.037,0,0.105,0.021,0.215,0.021c0.424,0.036,1.271,0.175,1.271,0.175l0.15,0.785l-0.84,0.163h-0.582
		h-0.834c0,0-0.936,0-1.127,0c-0.168,0-0.938,0.706-0.938,0.706l-0.02,1.084l0.857,0.432h2.061h1.422l0.098,3.032l0.061,0.945
		l0.102,0.616l0.65,0.265h0.742l0.596-0.723l0.229-0.728l0.064-1.16l-0.064-1.283l0.174-1.131l0.611-0.068
		c0,0,0.375,0.068,0.668,0.091c0.234,0.06,0.461,0.085,0.559,0.085c0.24,0,0.939,0.162,0.939,0.162l0.912-0.068l0.586-0.727
		l-0.176-0.994l-0.861-0.231l-1.16-0.167l-0.799-0.039l-1.127-0.025l-0.027-0.879h0.617h0.537h0.947l1.408,0.194l1.092,0.288
		l1.119,0.323l1.162,0.423l1.029-0.118l0.857-0.468l0.75-0.861l0.32-0.979L72.323,27.75 M57.858,23.121l0.664,0.091h0.094
		l1.158,0.144l0.17,0.619l-0.24,0.406h-0.832l-0.35,0.02l-0.664,0.035l-0.697-0.229l-0.078-0.851L57.858,23.121 M59.794,27.682
		c0,0-0.391,0.068-0.689,0.136c-0.115,0-0.359,0-0.582,0c-0.242,0-0.445,0-0.445,0l-0.865-0.067l-0.051-0.758l0.213-0.527
		l1.008-0.164l0.141-0.039l0.805-0.133l0.467,0.336l0.248,0.684L59.794,27.682 M65.137,27.148l-0.342,0.602h-0.461h-0.461H63.1
		l-0.381-0.127l-0.125-0.561l0.125-0.598l0.688-0.045l0.467-0.033l0.947-0.03l0.367,0.337L65.137,27.148z"/>
	<path fill="#FFFFFF" d="M94.284,20.892l1.32,0.365l0.836,0.24c0,0,1.846,0.535,2.148,0.563c0.301,0.077,1.006,0.208,1.27,0.136
		c0.293-0.059,0.912-0.591,0.912-0.591l1.455-1.884l-0.357-0.604h-1.623l-3.518-0.102l-1.123-0.071l-2.807-0.082v-1.367
		c0,0-0.85-0.978-1.496-1.032c-0.125,0-0.289-0.045-0.422-0.045c-0.631,0-1.373,0.045-1.373,0.045l-0.428,0.556l-0.061,1.643
		c0,0-1.258-0.071-2.719-0.18c-1.941-0.098-4.297-0.184-4.66-0.07c-0.633,0.25-1.729,1.396-1.729,1.396l0.24,1.15l0.506,0.647
		l0.854,0.591l0.691-0.371c0,0,0.926-0.631,1.162-0.567c0.23,0.069,2.213-0.22,2.213-0.22l0.723-0.146l0.768-0.147h1.695
		l0.744,0.293l0.176,1.158l-0.4,0.455l-0.66-0.125c0,0-0.287-0.23-0.457-0.258c-0.18-0.072-0.568-0.131-0.568-0.131l-1.096,0.614
		L86.3,22.835l-0.625,0.208l-0.861-0.292l-0.926-0.101l-0.932,0.393l-0.52,0.646l0.066,3.708l0.756,6.936l0.563,0.562l0.828-0.256
		l0.635-0.363l0.057-2.574H86.3l3.004,0.02l0.258,2.043l0.121,1.26l0.33,1.174c0,0,0.543-0.072,0.699-0.072c0.023,0,0.096,0,0.168,0
		c0.264-0.075,0.691-0.221,0.691-0.221l0.287-0.938l0.244-1.148l0.121-2.098l3.381-0.083h0.307l0.893-0.648l0.016,1.177
		c0,0-0.156,1.122-0.092,1.402c0.076,0.316-0.15,1.326-0.15,1.326s0.395,0.773,0.572,0.773c0.146,0,1.5-0.469,1.5-0.469l0.445-1.314
		l0.42-1.965l0.699-7.539l-0.93-0.984l-1.322-0.041h-2.357h-0.021l-1.168-0.648h-0.934l-1.32-0.182l-0.059-0.627l0.6-1.025
		L94.284,20.892 M85.18,26.693l-0.07-0.691l0.07-0.406l0.023-0.452l0.994-0.181l0.102,0.041l0.541,0.363l0.621,0.869l-0.621,0.12
		l-0.541,0.03l-0.252,0.033l-0.637,0.334L85.18,26.693 M89.454,29.652c0,0-0.832,0.195-1.004,0.215
		c-0.158,0.061-1.684,0.123-1.684,0.123L86.3,30.043L85.6,30.079l-0.189-0.427V28.84l0.025-0.404l0.863,0.076l0.676,0.031h1.359
		h1.119V29.652 M94.563,25.668l0.555-0.705l0.486,0.041l0.307,0.036l0.98,0.163l0.137,0.762l-0.057,0.729l-0.625,0.061l-0.742-0.061
		l-0.793-0.031l-0.627-0.306L94.563,25.668 M93.954,28.684l1.324,0.07l0.326-0.07l0.67-0.064l0.754-0.37l0.035,0.835l-0.172,1.033
		l-0.773-0.408h-0.514l-3.207-0.1l-0.125-0.99l0.525-0.147L93.954,28.684 M92.272,24.668l-0.049,0.636l-0.465,0.755l-0.457,0.462
		l-0.422,0.044l-0.168,0.042l-0.729-0.142l-0.373-0.94l-0.156-0.903l0.635-0.043l0.684-0.07h0.107h0.916L92.272,24.668z"/>
	<path fill="#FFFFFF" d="M132.128,32.852c-3.17-1.918-5.834-5.789-5.834-5.789l-0.119-0.762l0.516-0.064l1.037-0.178l0.918-0.755
		c0,0,0.641-7.363,0.529-7.585c-0.121-0.168-0.363-0.482-0.811-0.701c-0.48-0.16-1.207,0.303-1.207,0.303l-2.578-0.022l-0.553-0.033
		c0,0-0.311-0.028-0.668-0.1c-0.395-0.028-0.793-0.147-0.959-0.177c-0.266-0.131-1.027-0.188-1.027-0.188l-1.232,1.281l-0.172,1.467
		l-1.777-1.467l-0.463-0.625l-0.098-0.292l-0.238-0.548l-0.521-0.447l-1.166,0.125l-0.924,0.97l-0.93,2.042l-0.928,0.98
		l-1.938,1.372l-1.469,0.636l-0.072,0.526l0.371,0.999l0.793,0.475l1.23-0.156l0.797-0.393l2.145,0.129v0.703l-1.857,0.227
		l-0.729,0.563l-0.129,0.598v0.642l0.691,0.239l1.955-0.02v1.793c0,0-0.568,0.064-0.732,0.064c-0.201,0-0.66-0.212-0.66-0.212
		l-0.498-0.146l-0.756,0.678l-0.4,0.705l0.469,0.764l0.688,0.561l0.867-0.635l0.768-0.689l0.463-0.406v1.973l-0.463,0.283h-0.83
		l-1.172-0.057l-0.615,0.057l-0.641,0.705l-0.213,0.61l0.281,0.944l0.627,0.597l0.863-0.082l0.795-0.448l1.16-0.47l2.918-0.087
		l1.545-0.04l0.307,0.438l0.197,0.787l0.461,0.454h0.66l2.559-1.521l0.785-0.486l0.436-0.41l0.563-0.463l0.184-0.448l-0.545-0.648
		l-0.201-0.028l-0.496-0.027l-0.559,0.469l-0.166-0.041l-0.699-0.029l-0.059-0.996l0.688-0.151l0.07-0.051l0.629-0.362l0.592-0.362
		l0.094-0.032h0.469l0.492,1.492l0.66,0.998l0.574,1.007l0.691,0.89l0.559,0.749l0.9,0.361h0.93l0.854-0.206l0.865-0.719
		l0.535-0.434L132.128,32.852 M119.641,31.402l-2.012-0.115l-0.527-0.012l0.221-1.348l0.307,0.063l1.027,0.25l0.824-0.25l0.26-0.814
		l-0.063-0.74c0,0-0.789-0.187-0.961-0.187c-0.135,0-0.814-0.06-1.088-0.099c-0.102,0-0.141,0-0.141,0v-0.753l0.141-0.263
		l0.098-0.289l0.855-0.02l0.764-0.164l0.395-0.697l-0.328-0.895l-1.686-0.107l0.131-1.143l0.951-0.131l0.537-0.256l0.162-0.547
		l-0.387-0.75c0,0-0.77-0.104-0.932-0.104c-0.063,0-0.332-0.044-0.561-0.044c-0.307-0.027-0.586-0.027-0.586-0.027l-1.273-0.063
		l-0.924-0.165l0.557-0.603l0.863-0.791l0.836-0.299h0.527h0.098l0.625,0.625l0.822,0.705l0.504-0.114l0.521-0.22l0.184,10.365
		H119.641 M122.823,19.074l0.535-0.045h1.221l1.715-0.015l0.248,0.563l-0.135,0.818l-0.863,0.043l-0.965-0.043l-1.221-0.057h-0.371
		l-0.328-0.619L122.823,19.074 M124.212,26.521l-0.854,1.196l-0.426,0.532l-0.473,0.077l-0.061-2.09l0.283-0.178h0.676h0.932
		L124.212,26.521 M125.61,24.039l-1.031-0.064l-1.221-0.1h-0.043l-0.492-0.285l0.037-0.939h0.498h1.221h1.506l0.209,1.004
		L125.61,24.039z"/>
	<path fill="#FFFFFF" d="M150.626,22.195c0,0-0.807,0.33-0.883,0.512c-0.031,0.18-0.234,1.168-0.234,1.168l0.361,0.793l0.594,0.24
		l0.9-0.072l0.758,0.072l0.404,3.242c0,0,0.072,1.697,0.137,2.034c0.061,0.345,0.152,2.171,0.152,2.171l0.172,1.754l0.137,1.264
		l0.625,0.461l0.826-0.029l0.795-0.476l0.307-0.69l0.076-2.841l-0.244-3.362L155.3,25.27h0.938l0.904,0.439l1.115,0.492l1.15,0.035
		l1.308-0.527l0.457-0.873l0.619-1.146l0.068-1.039L150.626,22.195z"/>
	<g>
		<polygon fill="#FFFFFF" points="157.29,44.827 160.625,41.508 158.208,41.508 154.819,44.917 154.819,41.344 152.733,41.344 
			152.811,50.195 155.083,50.27 155.083,45.909 158.335,50.195 161.059,50.195 		"/>
		<polygon fill="#FFFFFF" points="149.087,46.543 145.446,41.266 143.009,41.266 143.009,50.195 145.079,50.071 145.079,44.639 
			148.885,50.071 151.327,50.071 151.327,41.266 149.087,41.266 		"/>
		<path fill="#FFFFFF" d="M137.108,41.266h-1.117l-3.631,8.93h2.367l0.418-1.283h1.963h1.77l0.355,1.159h2.363l-3.158-8.806H137.108
			 M137.108,46.543h-0.959l0.922-2.633l0.037,0.072l0.977,2.561H137.108z"/>
		<path fill="#FFFFFF" d="M130.352,45.426c0,0,0.648-0.625,0.648-2.077c0-1.448-1.453-2.155-1.453-2.155h-2.602h-4.123l-0.119,9.002
			h4.242h3.207c0,0,1.119-0.856,1.203-2.48c0-0.04,0-0.076,0-0.076v-0.247C131.317,45.979,130.352,45.426,130.352,45.426
			 M124.993,43.419l1.953-0.112l1.609-0.159l0.355,0.677l-0.482,0.613h-1.482h-1.953V43.419 M128.555,48.178l-1.609-0.025
			l-2.113-0.084l0.074-1.234l2.039-0.076l1.848-0.029l0.396,0.91L128.555,48.178z"/>
		<polygon fill="#FFFFFF" points="113.374,46.066 112.821,46.066 109.925,40.992 107.098,40.992 107.098,49.785 109.087,49.785 
			109.087,44.353 113.091,49.785 115.45,49.906 115.45,40.992 113.374,40.992 		"/>
		<path fill="#FFFFFF" d="M100.954,40.906h-1.105l-3.563,8.797l2.35,0.082l0.73-1.436l1.588-0.043l1.77-0.035l0.85,1.635
			l2.072-0.203l-3.199-8.797H100.954 M100.954,46.109l-1.033-0.043l0.994-2.437l0.039,0.118l1.051,2.445L100.954,46.109z"/>
		<polygon fill="#FFFFFF" points="92.915,46.066 89.282,40.906 86.823,40.83 86.823,49.785 88.844,49.906 89.005,44.197 
			92.831,49.785 95.19,49.785 95.19,40.83 93.114,40.83 		"/>
		<path fill="#FFFFFF" d="M74.716,40.83H73.53l-3.441,8.873h2.279l0.645-1.279h1.703h1.922l0.467,1.206h2.137l-3.148-8.8H74.716
			 M74.716,46.066h-0.904l0.904-2.437l0.898,2.437H74.716z"/>
		<polygon fill="#FFFFFF" points="66.518,46.643 66.167,47.441 63.276,47.441 62.747,46.955 62.747,40.632 60.446,40.632 
			60.446,47.559 61.157,48.828 62.282,49.568 66.518,49.568 68.012,48.828 68.716,47.715 68.716,40.632 66.518,40.632 		"/>
		<path fill="#FFFFFF" d="M56.911,40.705c0,0.287,0,3.119,0,3.119h-3.846V40.83h-2.15v8.873h1.926v-3.637h3.869v3.563h2.297
			l0.07-8.925C59.077,40.705,56.911,40.476,56.911,40.705z"/>
	</g>
</g>
<g>
	<path fill="#FFFFFF" d="M177.133,36.384h-1.502V13.649h1.502V36.384z"/>
	<path fill="#FFFFFF" d="M192.373,15.242h5.234c1.016,0,1.524,0.471,1.524,1.411V28.67c0,0.986-0.485,1.486-1.456,1.502
		c0.091,0.105,0.159,0.227,0.205,0.363c0.272,1.305,0.781,2.428,1.524,3.368c0.228,0.197,0.341,0.409,0.341,0.638
		c0,0.287-0.045,0.47-0.137,0.546c-0.137,0.228-0.355,0.341-0.659,0.341c-0.273,0-0.539-0.121-0.797-0.363
		c-0.501-0.547-0.993-1.495-1.479-2.846c-0.258-0.818-0.387-1.35-0.387-1.592c0-0.197,0.038-0.35,0.114-0.455h-2.731
		c0.137,0.136,0.205,0.287,0.205,0.455c0,0.121-0.03,0.266-0.091,0.432c-0.606,1.457-1.282,2.73-2.025,3.823
		c-0.213,0.243-0.455,0.364-0.729,0.364c-0.652,0-0.979-0.235-0.979-0.705c0-0.213,0.03-0.365,0.091-0.455
		c0.698-0.971,1.411-2.215,2.14-3.732c0.015-0.076,0.046-0.137,0.091-0.182c-1.017,0-1.524-0.502-1.524-1.502V16.653
		C190.849,15.713,191.357,15.242,192.373,15.242z M192.465,19.407h5.051v-2.208c0-0.303-0.144-0.455-0.432-0.455h-4.188
		c-0.288,0-0.432,0.152-0.432,0.455V19.407z M192.465,23.776h5.051v-2.753h-5.051V23.776z M197.084,28.67
		c0.288,0,0.432-0.183,0.432-0.547v-2.754h-5.051v2.754c0,0.364,0.144,0.547,0.432,0.547H197.084z M209.805,18.36
		c0.531,0,0.797,0.266,0.797,0.796c0,0.592-0.266,0.889-0.797,0.889h-2.139v13.063c0,1.365-0.773,2.048-2.321,2.048
		c-0.835,0-1.957-0.205-3.368-0.614c-0.41-0.152-0.614-0.418-0.614-0.797c0.015-0.516,0.22-0.789,0.614-0.819
		c0.121,0,0.311,0.03,0.568,0.091c1.427,0.364,2.359,0.547,2.8,0.547c0.485,0,0.728-0.297,0.728-0.889v-9.808
		c-1.197,2.245-2.715,4.536-4.551,6.872c-0.35,0.41-0.614,0.615-0.797,0.615c-0.713,0-1.069-0.296-1.069-0.888
		c0-0.151,0.091-0.326,0.273-0.523c1.76-2.079,3.11-3.892,4.051-5.438c0.667-1.107,1.282-2.261,1.843-3.459h-5.188
		c-0.531,0-0.796-0.297-0.796-0.889c0-0.53,0.265-0.796,0.796-0.796h5.438v-2.936c0-0.546,0.266-0.819,0.797-0.819
		s0.797,0.273,0.797,0.819v2.936H209.805z"/>
	<path fill="#FFFFFF" d="M229.963,14.537c0.592,0,0.889,0.296,0.889,0.888v0.705h7.646c0.622,0,1.085,0.213,1.388,0.638
		c0.258,0.334,0.388,0.834,0.388,1.502c0,0.409-0.062,0.88-0.183,1.41c-0.137,0.426-0.463,0.638-0.979,0.638
		c-0.531,0-0.796-0.272-0.796-0.819c0.182-0.606,0.272-0.986,0.272-1.138c0-0.546-0.242-0.819-0.729-0.819h-15.725
		c-0.471,0-0.705,0.242-0.705,0.729v1.229c0,0.547-0.273,0.819-0.819,0.819c-0.531,0-0.797-0.272-0.797-0.819v-1.775
		c0-1.062,0.538-1.593,1.616-1.593h7.646v-0.705C229.076,14.833,229.371,14.537,229.963,14.537z M222.658,26.621h14.86
		c1.001,0,1.502,0.471,1.502,1.411v5.438c0,0.941-0.501,1.411-1.502,1.411h-14.86c-1.002,0-1.502-0.47-1.502-1.411v-5.438
		C221.156,27.092,221.656,26.621,222.658,26.621z M237.336,18.701c0.471,0,0.706,0.236,0.706,0.706c0,0.485-0.235,0.728-0.706,0.728
		h-14.928c-0.486,0-0.729-0.242-0.729-0.728c0-0.47,0.242-0.706,0.729-0.706H237.336z M223.729,21.364h12.356
		c1.017,0,1.524,0.448,1.524,1.343v1.434c0,0.941-0.508,1.411-1.524,1.411h-12.356c-0.941,0-1.412-0.47-1.412-1.411v-1.434
		C222.317,21.813,222.787,21.364,223.729,21.364z M222.75,29.989h6.508v-1.957h-6.052c-0.305,0-0.456,0.183-0.456,0.546V29.989z
		 M229.258,33.471v-2.048h-6.508v1.502c0,0.364,0.151,0.546,0.456,0.546H229.258z M235.584,24.209c0.349,0,0.523-0.205,0.523-0.615
		V23.23c0-0.35-0.175-0.523-0.523-0.523h-11.309c-0.305,0-0.457,0.174-0.457,0.523v0.363c0,0.41,0.152,0.615,0.457,0.615H235.584z
		 M230.76,28.032v1.957h6.668v-1.411c0-0.363-0.152-0.546-0.455-0.546H230.76z M236.973,33.471c0.303,0,0.455-0.182,0.455-0.546
		v-1.502h-6.668v2.048H236.973z"/>
	<path fill="#FFFFFF" d="M252.512,14.355c0.197,0,0.363,0.061,0.5,0.182s0.205,0.296,0.205,0.523c0,0.106-0.022,0.258-0.068,0.455
		h5.849c0.485,0,0.729,0.235,0.729,0.705c0,0.471-0.243,0.706-0.729,0.706h-2.753c0.075,0.304,0.15,0.713,0.227,1.229
		c0.031,0.137,0.046,0.228,0.046,0.273c0,0.485-0.266,0.728-0.796,0.728c-0.44,0-0.676-0.242-0.706-0.728
		c-0.076-0.577-0.159-1.062-0.25-1.456v-0.046h-2.23c-0.243,0.425-0.523,0.812-0.842,1.161c-0.273,0.303-0.592,0.568-0.956,0.796
		c-0.167,0.122-0.342,0.183-0.523,0.183c-0.197,0-0.371-0.084-0.523-0.251c-0.137-0.151-0.205-0.333-0.205-0.546
		s0.092-0.395,0.273-0.547c0.303-0.197,0.561-0.424,0.773-0.682c0.273-0.304,0.508-0.63,0.706-0.979
		c0.182-0.334,0.341-0.729,0.478-1.184C251.836,14.529,252.102,14.355,252.512,14.355z M262.115,14.355
		c0.197,0,0.363,0.061,0.5,0.182s0.205,0.296,0.205,0.523c0,0.106-0.022,0.258-0.068,0.455h6.486c0.47,0,0.705,0.235,0.705,0.705
		c0,0.471-0.235,0.706-0.705,0.706h-3.072c0.061,0.304,0.129,0.713,0.205,1.229c0.015,0.137,0.022,0.228,0.022,0.273
		c0,0.485-0.266,0.728-0.797,0.728c-0.44,0-0.683-0.242-0.728-0.728c-0.046-0.577-0.1-1.062-0.16-1.456v-0.046h-2.525
		c-0.152,0.288-0.326,0.562-0.523,0.819s-0.433,0.485-0.705,0.683c-0.168,0.122-0.35,0.183-0.547,0.183
		c0.076,0.121,0.113,0.272,0.113,0.455v0.705h7.738c0.621,0,1.084,0.213,1.388,0.637c0.258,0.334,0.388,0.835,0.388,1.502
		c0,0.652-0.031,1.396-0.092,2.23c-0.137,0.41-0.463,0.614-0.979,0.614c-0.531,0-0.797-0.265-0.797-0.796
		c0.121-1.047,0.183-1.699,0.183-1.957c0-0.531-0.243-0.797-0.729-0.797h-15.815c-0.35,0-0.523,0.174-0.523,0.523v2.139
		c0,0.531-0.273,0.797-0.82,0.797c-0.531,0-0.796-0.266-0.796-0.797v-2.503c0-1.062,0.538-1.593,1.616-1.593h7.555v-0.705
		c0-0.531,0.266-0.797,0.797-0.797c0.076,0,0.151,0,0.228,0c-0.091-0.137-0.137-0.288-0.137-0.455c0-0.213,0.083-0.387,0.251-0.523
		c0.211-0.182,0.394-0.372,0.545-0.569c0.183-0.272,0.334-0.554,0.455-0.842c0.137-0.273,0.251-0.606,0.342-1.001
		C261.44,14.529,261.705,14.355,262.115,14.355z M264.528,34.723H253.49c-0.819,0-1.229-0.387-1.229-1.16v-9.695
		c0-0.713,0.409-1.069,1.229-1.069h12.106c0.819,0,1.229,0.356,1.229,1.069v2.754c0,0.773-0.41,1.16-1.229,1.16h-11.743v1.775
		h12.722c0.819,0,1.229,0.357,1.229,1.07v2.936c0,0.773-0.41,1.16-1.229,1.16H264.528z M263.731,24.141h-9.262
		c-0.41,0-0.615,0.235-0.615,0.705v1.594h11.016c0.242,0,0.363-0.175,0.363-0.523v-1.344c0-0.287-0.121-0.432-0.363-0.432H263.731z
		 M253.854,30.877v1.707c0,0.531,0.205,0.796,0.615,0.796h11.379c0.242,0,0.363-0.183,0.363-0.546v-1.502
		c0-0.304-0.121-0.455-0.363-0.455H253.854z"/>
	<path fill="#FFFFFF" d="M285.339,15.584c0.47,0,0.706,0.239,0.706,0.717c0,0.523-0.236,0.785-0.706,0.785h-1.866v6.076h1.775
		c0.484,0,0.729,0.235,0.729,0.705c0,0.531-0.244,0.797-0.729,0.797h-1.775v6.486c0.606-0.319,1.32-0.729,2.139-1.229
		c0.229-0.061,0.35-0.091,0.365-0.091c0.53,0,0.796,0.295,0.796,0.887c0,0.197-0.129,0.41-0.387,0.638
		c-0.638,0.485-1.487,0.994-2.549,1.524c-1.306,0.668-2.534,1.184-3.687,1.548c-0.182,0.075-0.35,0.114-0.501,0.114
		c-0.531,0-0.796-0.297-0.796-0.888c0-0.47,0.204-0.767,0.613-0.888c0.941-0.288,1.745-0.568,2.413-0.842v-7.26h-1.775
		c-0.485,0-0.728-0.266-0.728-0.797c0-0.47,0.242-0.705,0.728-0.705h1.775v-6.076h-2.14c-0.471,0-0.705-0.262-0.705-0.785
		c0-0.478,0.234-0.717,0.705-0.717H285.339z M288.184,15.334h9.604c0.895,0,1.342,0.408,1.342,1.227v7.901
		c0,0.894-0.447,1.34-1.342,1.34h-4.006v2.776h4.803c0.484,0,0.728,0.235,0.728,0.705c0,0.531-0.243,0.797-0.728,0.797h-4.803v3.209
		h5.963c0.471,0,0.705,0.234,0.705,0.705c0,0.531-0.234,0.797-0.705,0.797h-13.336c-0.471,0-0.705-0.266-0.705-0.797
		c0-0.471,0.234-0.705,0.705-0.705h5.78V30.08h-4.62c-0.47,0-0.705-0.266-0.705-0.797c0-0.47,0.235-0.705,0.705-0.705h4.62v-2.776
		h-4.005c-0.881,0-1.32-0.446-1.32-1.34v-7.901C286.864,15.742,287.303,15.334,288.184,15.334z M288.457,19.771h3.731v-2.936h-3.118
		c-0.409,0-0.613,0.213-0.613,0.637V19.771z M292.189,24.3v-3.095h-3.731v2.389c0,0.471,0.204,0.706,0.613,0.706H292.189z
		 M293.781,16.836v2.936h3.732v-2.299c0-0.424-0.205-0.637-0.614-0.637H293.781z M296.9,24.3c0.409,0,0.614-0.235,0.614-0.706
		v-2.389h-3.732V24.3H296.9z"/>
</g>
</svg>
